<svg xmlns="http://www.w3.org/2000/svg" viewBox="0 0 200 200"><!-- Mesa · retrato por defecto: aasimar (hombre) --><defs><radialGradient id="fondo-aasimar-m" cx="50%" cy="38%" r="70%"><stop offset="0" stop-color="#6a5a2a"/><stop offset="1" stop-color="#2a2412"/></radialGradient></defs><rect width="200" height="200" fill="url(#fondo-aasimar-m)"/><circle cx="100" cy="58" r="52" fill="none" stroke="#ffe9a8" stroke-width="5" opacity=".55"/><circle cx="100" cy="58" r="60" fill="#ffe9a8" opacity=".08"/><path d="M14 205 C18 168 34 150 100 146 C166 150 182 168 186 205 Z" fill="#e6e0d0"/> <path d="M74 150 L100 186 L126 150" stroke="#d8b04a" stroke-width="5" fill="none" stroke-linejoin="round"/> <circle cx="100" cy="186" r="6" fill="#d8b04a"/><path d="M85 112 L83 150 L117 150 L115 112 Z" fill="#d4b292"/><ellipse cx="67" cy="96" rx="6" ry="10" fill="#d4b292"/><ellipse cx="133" cy="96" rx="6" ry="10" fill="#d4b292"/><path d="M69 90 C69 60 81 52 100 52 C119 52 131 60 131 90 C131 108 121 126 100 132 C79 126 69 108 69 90 Z" fill="#f2d2b2"/><ellipse cx="87" cy="93" rx="5.2" ry="3.4" fill="#fff2b0"/><ellipse cx="113" cy="93" rx="5.2" ry="3.4" fill="#fff2b0"/><path d="M80 84 q7 -3 14 0 M106 84 q7 -3 14 0" stroke="#aba186" stroke-width="3" stroke-linecap="round" fill="none"/><path d="M100 95 l-4 14 q4 3 8 0 Z" fill="#00000022"/><path d="M91 115 q9 3 18 0" stroke="#6a3a30" stroke-width="2.4" stroke-linecap="round" fill="none"/><path d="M68 86 C66 52 82 44 100 45 C118 44 134 52 132 86 C128 72 112 62 100 66 C86 60 72 72 68 86 Z" fill="#f4e6c0"/></svg>
