<svg xmlns="http://www.w3.org/2000/svg" viewBox="0 0 200 200"><!-- Mesa · retrato por defecto: elfo (mujer) --><defs><radialGradient id="fondo-elfo-f" cx="50%" cy="38%" r="70%"><stop offset="0" stop-color="#2f5a4a"/><stop offset="1" stop-color="#16271f"/></radialGradient></defs><rect width="200" height="200" fill="url(#fondo-elfo-f)"/><path d="M64 92 C58 46 78 38 100 38 C122 38 142 46 136 92 C150 120 138 140 150 160 L50 160 C62 140 50 120 64 92 Z" fill="#d9e1ea"/><path d="M14 205 C18 168 34 150 100 146 C166 150 182 168 186 205 Z" fill="#4a3f78"/> <path d="M74 150 L100 186 L126 150" stroke="#c8d4e6" stroke-width="5" fill="none" stroke-linejoin="round"/> <circle cx="100" cy="186" r="6" fill="#c8d4e6"/><path d="M85 112 L83 150 L117 150 L115 112 Z" fill="#d8bca2"/><path d="M72 88 L43 74 L72 104 Z" fill="#d8bca2"/> <path d="M128 88 L157 74 L128 104 Z" fill="#d8bca2"/><path d="M69 90 C69 60 81 52 100 52 C119 52 131 60 131 90 C131 108 121 126 100 132 C79 126 69 108 69 90 Z" fill="#f3dcc6"/><ellipse cx="87" cy="93" rx="4.6" ry="3.2" fill="#f4efe6"/><ellipse cx="113" cy="93" rx="4.6" ry="3.2" fill="#f4efe6"/> <circle cx="87" cy="93" r="2.5" fill="#1c1714"/><circle cx="113" cy="93" r="2.5" fill="#1c1714"/><path d="M81 91 q6 -5 12 0 M107 91 q6 -5 12 0" stroke="#1a1410" stroke-width="1.6" fill="none"/><path d="M80 84 q7 -4 14 0 M106 84 q7 -4 14 0" stroke="#989ea4" stroke-width="1.8" stroke-linecap="round" fill="none"/><path d="M100 95 l-4 14 q4 3 8 0 Z" fill="#00000022"/><path d="M92 115 q8 5 16 0" stroke="#9a4a48" stroke-width="3" stroke-linecap="round" fill="none"/><path d="M66 96 C64 52 82 42 100 43 C118 42 136 52 134 96 C126 78 122 66 102 60 C88 66 72 78 66 96 Z" fill="#d9e1ea"/><path d="M70 70 q30 -10 60 0" stroke="#c8d4e6" stroke-width="3" fill="none"/><circle cx="100" cy="65" r="4" fill="#7fd0ff"/></svg>
