<svg xmlns="http://www.w3.org/2000/svg" viewBox="0 0 200 200"><!-- Mesa · retrato por defecto: gnomo (mujer) --><defs><radialGradient id="fondo-gnomo-f" cx="50%" cy="38%" r="70%"><stop offset="0" stop-color="#2f5a6a"/><stop offset="1" stop-color="#13262d"/></radialGradient></defs><rect width="200" height="200" fill="url(#fondo-gnomo-f)"/><circle cx="100" cy="52" r="15" fill="#e05a8a"/><path d="M8.719999999999999 205 C12.719999999999999 168 28.72 150 100 146 C171.28 150 187.28 168 191.28 205 Z" fill="#2f6a5a"/> <path d="M74 150 L100 186 L126 150" stroke="#f0c060" stroke-width="5" fill="none" stroke-linejoin="round"/> <circle cx="100" cy="186" r="6" fill="#f0c060"/><path d="M83.8 124 L81.64 150 L118.36 150 L116.2 124 Z" fill="#d1a682"/><path d="M69.52 96 L48.519999999999996 102 L69.52 120 Z" fill="#d1a682"/> <path d="M130.48000000000002 96 L151.48000000000002 102 L130.48000000000002 120 Z" fill="#d1a682"/><path d="M66.52 102 C66.52 72 78.52 64 100 64 C121.48000000000002 64 133.48000000000002 72 133.48000000000002 102 C133.48000000000002 120 123.48000000000002 138 100 144 C76.52 138 66.52 120 66.52 102 Z" fill="#f0c8a4"/><ellipse cx="85.96" cy="105" rx="4.6" ry="3.2" fill="#f4efe6"/><ellipse cx="114.04" cy="105" rx="4.6" ry="3.2" fill="#f4efe6"/> <circle cx="85.96" cy="105" r="2.5" fill="#1c1714"/><circle cx="114.04" cy="105" r="2.5" fill="#1c1714"/><path d="M79.96 103 q6 -5 12 0 M108.04 103 q6 -5 12 0" stroke="#1a1410" stroke-width="1.6" fill="none"/><path d="M78.96 96 q7 -4 14 0 M107.04 96 q7 -4 14 0" stroke="#9d3f61" stroke-width="1.8" stroke-linecap="round" fill="none"/><path d="M100 107 l-5 17.5 q5 3.75 10 0 Z" fill="#00000022"/><path d="M92 127 q8 5 16 0" stroke="#9a4a48" stroke-width="3" stroke-linecap="round" fill="none"/><path d="M61.44 100 l-10 -14 l10 -4 l-8 -18 l14 4 l2 -18 l14 10 l10 -16 l8 16 l12 -14 l4 18 l14 -6 l-4 18 l14 2 l-12 14 l-2 6 C128.56 82 110 74 100 76 C88 74 71.44 82 61.44 100 Z" fill="#e05a8a"/><path d="M64.36 78 L135.64 78" stroke="#4a3a2a" stroke-width="5"/><circle cx="88" cy="76" r="9" fill="#7fd0d8" stroke="#8a6a3a" stroke-width="3"/><circle cx="112" cy="76" r="9" fill="#7fd0d8" stroke="#8a6a3a" stroke-width="3"/></svg>
