<svg xmlns="http://www.w3.org/2000/svg" viewBox="0 0 200 200"><!-- Mesa · retrato por defecto: goliat (mujer) --><defs><radialGradient id="fondo-goliat-f" cx="50%" cy="38%" r="70%"><stop offset="0" stop-color="#4a5566"/><stop offset="1" stop-color="#1d222b"/></radialGradient></defs><rect width="200" height="200" fill="url(#fondo-goliat-f)"/><circle cx="100" cy="40" r="15" fill="#2a2a30"/><path d="M6.079999999999998 205 C10.079999999999998 168 26.08 150 100 146 C173.92000000000002 150 189.92000000000002 168 193.92000000000002 205 Z" fill="#3a4a5a"/> <path d="M74 150 L100 186 L126 150" stroke="#8ab0c8" stroke-width="5" fill="none" stroke-linejoin="round"/> <circle cx="100" cy="186" r="6" fill="#8ab0c8"/><path d="M83.2 112 L80.96 150 L119.04 150 L116.8 112 Z" fill="#92969e"/><ellipse cx="63.28" cy="96" rx="6" ry="10" fill="#92969e"/><ellipse cx="136.72" cy="96" rx="6" ry="10" fill="#92969e"/><path d="M65.28 90 C65.28 60 77.28 52 100 52 C122.72 52 134.72 60 134.72 90 C134.72 114 118.72 126 100 132 C81.28 126 65.28 114 65.28 90 Z" fill="#b4b8be"/><path d="M70.88 80 l12 6 l-4 8 M129.12 80 l-12 6 l4 8 M100 56 l0 12 M82 112 l6 6" stroke="#3e4652" stroke-width="3" fill="none" stroke-linecap="round"/><ellipse cx="85.44" cy="93" rx="4.6" ry="3.2" fill="#f4efe6"/><ellipse cx="114.56" cy="93" rx="4.6" ry="3.2" fill="#f4efe6"/> <circle cx="85.44" cy="93" r="2.5" fill="#1c1714"/><circle cx="114.56" cy="93" r="2.5" fill="#1c1714"/><path d="M79.44 91 q6 -5 12 0 M108.56 91 q6 -5 12 0" stroke="#1a1410" stroke-width="1.6" fill="none"/><path d="M78.44 84 q7 -4 14 0 M107.56 84 q7 -4 14 0" stroke="#1d1d22" stroke-width="1.8" stroke-linecap="round" fill="none"/><path d="M100 95 l-4 14 q4 3 8 0 Z" fill="#00000022"/><path d="M92 115 q8 5 16 0" stroke="#9a4a48" stroke-width="3" stroke-linecap="round" fill="none"/><path d="M66.16 78 C66.16 54 84 46 100 47 C116 46 133.84 54 133.84 78 C125.84 64 108 60 100 60 C92 60 74.16 64 66.16 78 Z" fill="#2a2a30"/></svg>
